<svg width="67" height="56" viewBox="0 0 67 56" fill="none" xmlns="http://www.w3.org/2000/svg">
<path d="M47.867 36.7519L39.6768 33.4862L37.7586 31.8704C37.2521 31.4422 36.504 31.4739 36.0343 31.9408L33.3675 34.5922L30.6934 31.9398C30.2232 31.4736 29.476 31.4433 28.9699 31.8701L27.052 33.486L18.8613 36.7522C16.2243 37.8027 16.2264 47.1427 16 48H50.7328C50.5068 47.1448 50.5055 37.8012 47.867 36.7519Z" fill="black"/>
<path d="M43.6613 16.4582C43.0925 11.7081 38.6929 8 33.3664 8C28.0399 8 23.6403 11.7081 23.0715 16.4582C22.599 16.7609 22.2849 17.2892 22.2849 17.8918V21.7506C22.2849 22.6906 23.047 23.4531 23.9874 23.4531L25.5255 23.4492C26.4756 28.4134 29.8473 31.2379 33.3664 31.2379C36.8855 31.2379 38.93 29.565 40.2858 26.4821C39.2507 27.2941 37.7461 28.0368 35.6419 28.1902C35.4485 28.4782 35.1198 28.6678 34.7469 28.6678H33.7639C33.1689 28.6678 32.6865 28.1855 32.6865 27.5904C32.6865 26.9954 33.1689 26.5131 33.7639 26.5131H34.7469C35.0953 26.5131 35.4043 26.6793 35.6012 26.9359C38.9844 26.6643 40.5755 24.6124 41.2099 23.4539L42.7455 23.4533C43.6858 23.4533 44.448 22.6908 44.448 21.7508V17.892C44.4478 17.2892 44.1338 16.7609 43.6613 16.4582ZM41.1489 16.6321C40.1448 13.4623 37.244 11.578 33.3664 11.578C29.4887 11.578 26.5862 13.4612 25.5811 16.6294C25.4255 16.4889 25.2443 16.377 25.0447 16.3012C25.6874 12.6943 29.1742 9.9296 33.3664 9.9296C37.5587 9.9296 41.0453 12.6943 41.6881 16.3012C41.4872 16.3775 41.3051 16.4902 41.1489 16.6321Z" fill="black"/>
</svg>
