<svg width="770" height="167" viewBox="0 0 770 167" fill="none" xmlns="http://www.w3.org/2000/svg">
<path d="M13.0053 18.625V29.275H30.1803V39.175H13.0053V50.725H32.4303V61H0.180274V8.35H32.4303V18.625H13.0053ZM65.1314 18.7C70.0314 18.7 73.9314 20.3 76.8314 23.5C79.7814 26.65 81.2564 31 81.2564 36.55V61H68.5064V38.275C68.5064 35.475 67.7814 33.3 66.3314 31.75C64.8814 30.2 62.9314 29.425 60.4814 29.425C58.0314 29.425 56.0814 30.2 54.6314 31.75C53.1814 33.3 52.4564 35.475 52.4564 38.275V61H39.6314V19.15H52.4564V24.7C53.7564 22.85 55.5064 21.4 57.7064 20.35C59.9064 19.25 62.3814 18.7 65.1314 18.7ZM95.4186 14.8C93.1686 14.8 91.3186 14.15 89.8686 12.85C88.4686 11.5 87.7686 9.85 87.7686 7.9C87.7686 5.9 88.4686 4.25 89.8686 2.95C91.3186 1.6 93.1686 0.924996 95.4186 0.924996C97.6186 0.924996 99.4186 1.6 100.819 2.95C102.269 4.25 102.994 5.9 102.994 7.9C102.994 9.85 102.269 11.5 100.819 12.85C99.4186 14.15 97.6186 14.8 95.4186 14.8ZM101.869 66.4C101.869 71.55 100.569 75.25 97.9686 77.5C95.3686 79.8 91.7436 80.95 87.0936 80.95H82.0686V70.075H85.1436C86.5436 70.075 87.5436 69.8 88.1436 69.25C88.7436 68.7 89.0436 67.8 89.0436 66.55V19.15H101.869V66.4ZM129.014 61.6C124.914 61.6 121.214 60.725 117.914 58.975C114.664 57.225 112.089 54.725 110.189 51.475C108.339 48.225 107.414 44.425 107.414 40.075C107.414 35.775 108.364 32 110.264 28.75C112.164 25.45 114.764 22.925 118.064 21.175C121.364 19.425 125.064 18.55 129.164 18.55C133.264 18.55 136.964 19.425 140.264 21.175C143.564 22.925 146.164 25.45 148.064 28.75C149.964 32 150.914 35.775 150.914 40.075C150.914 44.375 149.939 48.175 147.989 51.475C146.089 54.725 143.464 57.225 140.114 58.975C136.814 60.725 133.114 61.6 129.014 61.6ZM129.014 50.5C131.464 50.5 133.539 49.6 135.239 47.8C136.989 46 137.864 43.425 137.864 40.075C137.864 36.725 137.014 34.15 135.314 32.35C133.664 30.55 131.614 29.65 129.164 29.65C126.664 29.65 124.589 30.55 122.939 32.35C121.289 34.1 120.464 36.675 120.464 40.075C120.464 43.425 121.264 46 122.864 47.8C124.514 49.6 126.564 50.5 129.014 50.5ZM199.343 19.15L173.093 80.875H159.293L168.893 59.575L151.868 19.15H166.193L175.868 45.325L185.468 19.15H199.343ZM240.95 50.125V61H234.425C229.775 61 226.15 59.875 223.55 57.625C220.95 55.325 219.65 51.6 219.65 46.45V29.8H214.55V19.15H219.65V8.95H232.475V19.15H240.875V29.8H232.475V46.6C232.475 47.85 232.775 48.75 233.375 49.3C233.975 49.85 234.975 50.125 236.375 50.125H240.95ZM272.693 18.7C277.493 18.7 281.343 20.3 284.243 23.5C287.143 26.65 288.593 31 288.593 36.55V61H275.843V38.275C275.843 35.475 275.118 33.3 273.668 31.75C272.218 30.2 270.268 29.425 267.818 29.425C265.368 29.425 263.418 30.2 261.968 31.75C260.518 33.3 259.793 35.475 259.793 38.275V61H246.968V5.5H259.793V24.775C261.093 22.925 262.868 21.45 265.118 20.35C267.368 19.25 269.893 18.7 272.693 18.7ZM335.83 39.4C335.83 40.6 335.755 41.85 335.605 43.15H306.58C306.78 45.75 307.605 47.75 309.055 49.15C310.555 50.5 312.38 51.175 314.53 51.175C317.73 51.175 319.955 49.825 321.205 47.125H334.855C334.155 49.875 332.88 52.35 331.03 54.55C329.23 56.75 326.955 58.475 324.205 59.725C321.455 60.975 318.38 61.6 314.98 61.6C310.88 61.6 307.23 60.725 304.03 58.975C300.83 57.225 298.33 54.725 296.53 51.475C294.73 48.225 293.83 44.425 293.83 40.075C293.83 35.725 294.705 31.925 296.455 28.675C298.255 25.425 300.755 22.925 303.955 21.175C307.155 19.425 310.83 18.55 314.98 18.55C319.03 18.55 322.63 19.4 325.78 21.1C328.93 22.8 331.38 25.225 333.13 28.375C334.93 31.525 335.83 35.2 335.83 39.4ZM322.705 36.025C322.705 33.825 321.955 32.075 320.455 30.775C318.955 29.475 317.08 28.825 314.83 28.825C312.68 28.825 310.855 29.45 309.355 30.7C307.905 31.95 307.005 33.725 306.655 36.025H322.705ZM395.69 39.4C395.69 40.6 395.615 41.85 395.465 43.15H366.44C366.64 45.75 367.465 47.75 368.915 49.15C370.415 50.5 372.24 51.175 374.39 51.175C377.59 51.175 379.815 49.825 381.065 47.125H394.715C394.015 49.875 392.74 52.35 390.89 54.55C389.09 56.75 386.815 58.475 384.065 59.725C381.315 60.975 378.24 61.6 374.84 61.6C370.74 61.6 367.09 60.725 363.89 58.975C360.69 57.225 358.19 54.725 356.39 51.475C354.59 48.225 353.69 44.425 353.69 40.075C353.69 35.725 354.565 31.925 356.315 28.675C358.115 25.425 360.615 22.925 363.815 21.175C367.015 19.425 370.69 18.55 374.84 18.55C378.89 18.55 382.49 19.4 385.64 21.1C388.79 22.8 391.24 25.225 392.99 28.375C394.79 31.525 395.69 35.2 395.69 39.4ZM382.565 36.025C382.565 33.825 381.815 32.075 380.315 30.775C378.815 29.475 376.94 28.825 374.69 28.825C372.54 28.825 370.715 29.45 369.215 30.7C367.765 31.95 366.865 33.725 366.515 36.025H382.565ZM426.081 61L418.056 49.375L411.306 61H397.431L411.231 39.625L397.056 19.15H411.456L419.481 30.7L426.231 19.15H440.106L426.081 40.225L440.481 61H426.081ZM457.122 25.075C458.372 23.125 460.097 21.55 462.297 20.35C464.497 19.15 467.072 18.55 470.022 18.55C473.472 18.55 476.597 19.425 479.397 21.175C482.197 22.925 484.397 25.425 485.997 28.675C487.647 31.925 488.472 35.7 488.472 40C488.472 44.3 487.647 48.1 485.997 51.4C484.397 54.65 482.197 57.175 479.397 58.975C476.597 60.725 473.472 61.6 470.022 61.6C467.122 61.6 464.547 61 462.297 59.8C460.097 58.6 458.372 57.05 457.122 55.15V80.95H444.297V19.15H457.122V25.075ZM475.422 40C475.422 36.8 474.522 34.3 472.722 32.5C470.972 30.65 468.797 29.725 466.197 29.725C463.647 29.725 461.472 30.65 459.672 32.5C457.922 34.35 457.047 36.875 457.047 40.075C457.047 43.275 457.922 45.8 459.672 47.65C461.472 49.5 463.647 50.425 466.197 50.425C468.747 50.425 470.922 49.5 472.722 47.65C474.522 45.75 475.422 43.2 475.422 40ZM533.526 39.4C533.526 40.6 533.451 41.85 533.301 43.15H504.276C504.476 45.75 505.301 47.75 506.751 49.15C508.251 50.5 510.076 51.175 512.226 51.175C515.426 51.175 517.651 49.825 518.901 47.125H532.551C531.851 49.875 530.576 52.35 528.726 54.55C526.926 56.75 524.651 58.475 521.901 59.725C519.151 60.975 516.076 61.6 512.676 61.6C508.576 61.6 504.926 60.725 501.726 58.975C498.526 57.225 496.026 54.725 494.226 51.475C492.426 48.225 491.526 44.425 491.526 40.075C491.526 35.725 492.401 31.925 494.151 28.675C495.951 25.425 498.451 22.925 501.651 21.175C504.851 19.425 508.526 18.55 512.676 18.55C516.726 18.55 520.326 19.4 523.476 21.1C526.626 22.8 529.076 25.225 530.826 28.375C532.626 31.525 533.526 35.2 533.526 39.4ZM520.401 36.025C520.401 33.825 519.651 32.075 518.151 30.775C516.651 29.475 514.776 28.825 512.526 28.825C510.376 28.825 508.551 29.45 507.051 30.7C505.601 31.95 504.701 33.725 504.351 36.025H520.401ZM551.992 26.125C553.492 23.825 555.367 22.025 557.617 20.725C559.867 19.375 562.367 18.7 565.117 18.7V32.275H561.592C558.392 32.275 555.992 32.975 554.392 34.375C552.792 35.725 551.992 38.125 551.992 41.575V61H539.167V19.15H551.992V26.125ZM576.572 14.8C574.322 14.8 572.472 14.15 571.022 12.85C569.622 11.5 568.922 9.85 568.922 7.9C568.922 5.9 569.622 4.25 571.022 2.95C572.472 1.6 574.322 0.924996 576.572 0.924996C578.772 0.924996 580.572 1.6 581.972 2.95C583.422 4.25 584.147 5.9 584.147 7.9C584.147 9.85 583.422 11.5 581.972 12.85C580.572 14.15 578.772 14.8 576.572 14.8ZM582.947 19.15V61H570.122V19.15H582.947ZM630.566 39.4C630.566 40.6 630.491 41.85 630.341 43.15H601.316C601.516 45.75 602.341 47.75 603.791 49.15C605.291 50.5 607.116 51.175 609.266 51.175C612.466 51.175 614.691 49.825 615.941 47.125H629.591C628.891 49.875 627.616 52.35 625.766 54.55C623.966 56.75 621.691 58.475 618.941 59.725C616.191 60.975 613.116 61.6 609.716 61.6C605.616 61.6 601.966 60.725 598.766 58.975C595.566 57.225 593.066 54.725 591.266 51.475C589.466 48.225 588.566 44.425 588.566 40.075C588.566 35.725 589.441 31.925 591.191 28.675C592.991 25.425 595.491 22.925 598.691 21.175C601.891 19.425 605.566 18.55 609.716 18.55C613.766 18.55 617.366 19.4 620.516 21.1C623.666 22.8 626.116 25.225 627.866 28.375C629.666 31.525 630.566 35.2 630.566 39.4ZM617.441 36.025C617.441 33.825 616.691 32.075 615.191 30.775C613.691 29.475 611.816 28.825 609.566 28.825C607.416 28.825 605.591 29.45 604.091 30.7C602.641 31.95 601.741 33.725 601.391 36.025H617.441ZM661.707 18.7C666.607 18.7 670.507 20.3 673.407 23.5C676.357 26.65 677.832 31 677.832 36.55V61H665.082V38.275C665.082 35.475 664.357 33.3 662.907 31.75C661.457 30.2 659.507 29.425 657.057 29.425C654.607 29.425 652.657 30.2 651.207 31.75C649.757 33.3 649.032 35.475 649.032 38.275V61H636.207V19.15H649.032V24.7C650.332 22.85 652.082 21.4 654.282 20.35C656.482 19.25 658.957 18.7 661.707 18.7ZM683.069 40.075C683.069 35.725 683.944 31.925 685.694 28.675C687.494 25.425 689.969 22.925 693.119 21.175C696.319 19.425 699.969 18.55 704.069 18.55C709.319 18.55 713.694 19.925 717.194 22.675C720.744 25.425 723.069 29.3 724.169 34.3H710.519C709.369 31.1 707.144 29.5 703.844 29.5C701.494 29.5 699.619 30.425 698.219 32.275C696.819 34.075 696.119 36.675 696.119 40.075C696.119 43.475 696.819 46.1 698.219 47.95C699.619 49.75 701.494 50.65 703.844 50.65C707.144 50.65 709.369 49.05 710.519 45.85H724.169C723.069 50.75 720.744 54.6 717.194 57.4C713.644 60.2 709.269 61.6 704.069 61.6C699.969 61.6 696.319 60.725 693.119 58.975C689.969 57.225 687.494 54.725 685.694 51.475C683.944 48.225 683.069 44.425 683.069 40.075ZM769.354 39.4C769.354 40.6 769.279 41.85 769.129 43.15H740.104C740.304 45.75 741.129 47.75 742.579 49.15C744.079 50.5 745.904 51.175 748.054 51.175C751.254 51.175 753.479 49.825 754.729 47.125H768.379C767.679 49.875 766.404 52.35 764.554 54.55C762.754 56.75 760.479 58.475 757.729 59.725C754.979 60.975 751.904 61.6 748.504 61.6C744.404 61.6 740.754 60.725 737.554 58.975C734.354 57.225 731.854 54.725 730.054 51.475C728.254 48.225 727.354 44.425 727.354 40.075C727.354 35.725 728.229 31.925 729.979 28.675C731.779 25.425 734.279 22.925 737.479 21.175C740.679 19.425 744.354 18.55 748.504 18.55C752.554 18.55 756.154 19.4 759.304 21.1C762.454 22.8 764.904 25.225 766.654 28.375C768.454 31.525 769.354 35.2 769.354 39.4ZM756.229 36.025C756.229 33.825 755.479 32.075 753.979 30.775C752.479 29.475 750.604 28.825 748.354 28.825C746.204 28.825 744.379 29.45 742.879 30.7C741.429 31.95 740.529 33.725 740.179 36.025H756.229ZM181.406 146.6C177.306 146.6 173.606 145.725 170.306 143.975C167.056 142.225 164.481 139.725 162.581 136.475C160.731 133.225 159.806 129.425 159.806 125.075C159.806 120.775 160.756 117 162.656 113.75C164.556 110.45 167.156 107.925 170.456 106.175C173.756 104.425 177.456 103.55 181.556 103.55C185.656 103.55 189.356 104.425 192.656 106.175C195.956 107.925 198.556 110.45 200.456 113.75C202.356 117 203.306 120.775 203.306 125.075C203.306 129.375 202.331 133.175 200.381 136.475C198.481 139.725 195.856 142.225 192.506 143.975C189.206 145.725 185.506 146.6 181.406 146.6ZM181.406 135.5C183.856 135.5 185.931 134.6 187.631 132.8C189.381 131 190.256 128.425 190.256 125.075C190.256 121.725 189.406 119.15 187.706 117.35C186.056 115.55 184.006 114.65 181.556 114.65C179.056 114.65 176.981 115.55 175.331 117.35C173.681 119.1 172.856 121.675 172.856 125.075C172.856 128.425 173.656 131 175.256 132.8C176.906 134.6 178.956 135.5 181.406 135.5ZM229.985 114.8H223.085V146H210.26V114.8H205.61V104.15H210.26V102.95C210.26 97.8 211.735 93.9 214.685 91.25C217.635 88.55 221.96 87.2 227.66 87.2C228.61 87.2 229.31 87.225 229.76 87.275V98.15C227.31 98 225.585 98.35 224.585 99.2C223.585 100.05 223.085 101.575 223.085 103.775V104.15H229.985V114.8ZM272.98 135.125V146H266.455C261.805 146 258.18 144.875 255.58 142.625C252.98 140.325 251.68 136.6 251.68 131.45V114.8H246.58V104.15H251.68V93.95H264.505V104.15H272.905V114.8H264.505V131.6C264.505 132.85 264.805 133.75 265.405 134.3C266.005 134.85 267.005 135.125 268.405 135.125H272.98ZM291.824 111.125C293.324 108.825 295.199 107.025 297.449 105.725C299.699 104.375 302.199 103.7 304.949 103.7V117.275H301.424C298.224 117.275 295.824 117.975 294.224 119.375C292.624 120.725 291.824 123.125 291.824 126.575V146H278.999V104.15H291.824V111.125ZM307.404 125C307.404 120.7 308.204 116.925 309.804 113.675C311.454 110.425 313.679 107.925 316.479 106.175C319.279 104.425 322.404 103.55 325.854 103.55C328.804 103.55 331.379 104.15 333.579 105.35C335.829 106.55 337.554 108.125 338.754 110.075V104.15H351.579V146H338.754V140.075C337.504 142.025 335.754 143.6 333.504 144.8C331.304 146 328.729 146.6 325.779 146.6C322.379 146.6 319.279 145.725 316.479 143.975C313.679 142.175 311.454 139.65 309.804 136.4C308.204 133.1 307.404 129.3 307.404 125ZM338.754 125.075C338.754 121.875 337.854 119.35 336.054 117.5C334.304 115.65 332.154 114.725 329.604 114.725C327.054 114.725 324.879 115.65 323.079 117.5C321.329 119.3 320.454 121.8 320.454 125C320.454 128.2 321.329 130.75 323.079 132.65C324.879 134.5 327.054 135.425 329.604 135.425C332.154 135.425 334.304 134.5 336.054 132.65C337.854 130.8 338.754 128.275 338.754 125.075ZM378.557 134L387.632 104.15H401.282L386.432 146H370.607L355.757 104.15H369.482L378.557 134ZM445.005 124.4C445.005 125.6 444.93 126.85 444.78 128.15H415.755C415.955 130.75 416.78 132.75 418.23 134.15C419.73 135.5 421.555 136.175 423.705 136.175C426.905 136.175 429.13 134.825 430.38 132.125H444.03C443.33 134.875 442.055 137.35 440.205 139.55C438.405 141.75 436.13 143.475 433.38 144.725C430.63 145.975 427.555 146.6 424.155 146.6C420.055 146.6 416.405 145.725 413.205 143.975C410.005 142.225 407.505 139.725 405.705 136.475C403.905 133.225 403.005 129.425 403.005 125.075C403.005 120.725 403.88 116.925 405.63 113.675C407.43 110.425 409.93 107.925 413.13 106.175C416.33 104.425 420.005 103.55 424.155 103.55C428.205 103.55 431.805 104.4 434.955 106.1C438.105 107.8 440.555 110.225 442.305 113.375C444.105 116.525 445.005 120.2 445.005 124.4ZM431.88 121.025C431.88 118.825 431.13 117.075 429.63 115.775C428.13 114.475 426.255 113.825 424.005 113.825C421.855 113.825 420.03 114.45 418.53 115.7C417.08 116.95 416.18 118.725 415.83 121.025H431.88ZM463.471 90.5V146H450.646V90.5H463.471ZM484.465 90.5V146H471.64V90.5H484.465ZM499.084 99.8C496.834 99.8 494.984 99.15 493.534 97.85C492.134 96.5 491.434 94.85 491.434 92.9C491.434 90.9 492.134 89.25 493.534 87.95C494.984 86.6 496.834 85.925 499.084 85.925C501.284 85.925 503.084 86.6 504.484 87.95C505.934 89.25 506.659 90.9 506.659 92.9C506.659 94.85 505.934 96.5 504.484 97.85C503.084 99.15 501.284 99.8 499.084 99.8ZM505.459 104.15V146H492.634V104.15H505.459ZM539.129 103.7C544.029 103.7 547.929 105.3 550.829 108.5C553.779 111.65 555.254 116 555.254 121.55V146H542.504V123.275C542.504 120.475 541.779 118.3 540.329 116.75C538.879 115.2 536.929 114.425 534.479 114.425C532.029 114.425 530.079 115.2 528.629 116.75C527.179 118.3 526.454 120.475 526.454 123.275V146H513.629V104.15H526.454V109.7C527.754 107.85 529.504 106.4 531.704 105.35C533.904 104.25 536.379 103.7 539.129 103.7ZM578.941 103.55C581.891 103.55 584.466 104.15 586.666 105.35C588.916 106.55 590.641 108.125 591.841 110.075V104.15H604.666V145.925C604.666 149.775 603.891 153.25 602.341 156.35C600.841 159.5 598.516 162 595.366 163.85C592.266 165.7 588.391 166.625 583.741 166.625C577.541 166.625 572.516 165.15 568.666 162.2C564.816 159.3 562.616 155.35 562.066 150.35H574.741C575.141 151.95 576.091 153.2 577.591 154.1C579.091 155.05 580.941 155.525 583.141 155.525C585.791 155.525 587.891 154.75 589.441 153.2C591.041 151.7 591.841 149.275 591.841 145.925V140C590.591 141.95 588.866 143.55 586.666 144.8C584.466 146 581.891 146.6 578.941 146.6C575.491 146.6 572.366 145.725 569.566 143.975C566.766 142.175 564.541 139.65 562.891 136.4C561.291 133.1 560.491 129.3 560.491 125C560.491 120.7 561.291 116.925 562.891 113.675C564.541 110.425 566.766 107.925 569.566 106.175C572.366 104.425 575.491 103.55 578.941 103.55ZM591.841 125.075C591.841 121.875 590.941 119.35 589.141 117.5C587.391 115.65 585.241 114.725 582.691 114.725C580.141 114.725 577.966 115.65 576.166 117.5C574.416 119.3 573.541 121.8 573.541 125C573.541 128.2 574.416 130.75 576.166 132.65C577.966 134.5 580.141 135.425 582.691 135.425C585.241 135.425 587.391 134.5 589.141 132.65C590.941 130.8 591.841 128.275 591.841 125.075Z" fill="white"/>
</svg>
