<svg width="34" height="32" viewBox="0 0 34 32" fill="none" xmlns="http://www.w3.org/2000/svg">
<path d="M29.7832 4.91612L29.782 4.91496C28.9744 4.12332 28.0223 3.49421 26.9773 3.06185L26.9754 3.06105C25.8911 2.61066 24.7283 2.38013 23.5542 2.38284L23.5508 2.38284C21.8994 2.38284 20.2909 2.8349 18.8945 3.68681L18.8944 3.68683C18.5603 3.89065 18.244 4.11383 17.9449 4.3564L17 5.12283L16.0551 4.3564C15.756 4.11383 15.4397 3.89065 15.1056 3.68683L15.1055 3.68681C13.7091 2.8349 12.1006 2.38284 10.4492 2.38284C9.25737 2.38284 8.10937 2.61047 7.02463 3.06105L7.02301 3.06173C5.9739 3.49607 5.02989 4.11977 4.21755 4.91541L4.2155 4.91741C3.41067 5.70268 2.76774 6.63825 2.32315 7.67109L29.7832 4.91612ZM29.7832 4.91612C30.5875 5.70283 31.2308 6.63876 31.6771 7.67156C32.1395 8.74638 32.3744 9.88296 32.3711 11.0544V11.0586C32.3711 12.154 32.1474 13.3281 31.6771 14.558L31.6758 14.5614C31.2864 15.5871 30.7077 16.6811 29.9496 17.8129C28.7501 19.6011 27.0734 21.5054 24.9478 23.4678C21.4128 26.7288 17.9108 28.9828 17.7882 29.0614L17.7879 29.0616L16.998 29.5682L16.2082 29.0616L16.1965 29.0541L16.1846 29.0468L16.1832 29.0458C16.1736 29.0398 16.1172 29.0039 16.0106 28.9339C15.8976 28.8596 15.7375 28.753 15.537 28.6165C15.1359 28.3434 14.5748 27.9516 13.9064 27.4595C12.5673 26.4737 10.8095 25.0942 9.04892 23.4684L9.04875 23.4682M29.7832 4.91612L9.04875 23.4682M9.04875 23.4682C6.92323 21.5059 5.24652 19.6018 4.04699 17.8136L9.04875 23.4682ZM1.625 11.0586C1.625 9.8842 1.86054 8.7461 2.3231 7.6712L2.31872 14.5572C1.84855 13.3276 1.625 12.1538 1.625 11.0586ZM4.0465 17.8129C3.29034 16.684 2.7139 15.5887 2.31901 14.558L4.0465 17.8129Z" stroke="white" stroke-width="3"/>
</svg>
