<svg width="142" height="40" viewBox="0 0 142 40" fill="none" xmlns="http://www.w3.org/2000/svg">
<circle cx="19.9772" cy="19.9772" r="19.9772" fill="#D63C0C"/>
<path d="M19.9772 17.8034C18.9666 24.3722 15.4295 30.9411 6.33423 30.9411L19.9772 8.77124L33.6202 30.9411C24.5249 30.9411 20.9878 24.3722 19.9772 17.8034Z" fill="white"/>
<path d="M19.9772 8.77124C21.1141 16.1612 19.9772 30.9411 6.33423 30.9411L19.9772 8.77124ZM19.9772 8.77124C18.8403 16.1612 19.9772 30.9411 33.6202 30.9411L19.9772 8.77124Z" stroke="white"/>
<path fill-rule="evenodd" clip-rule="evenodd" d="M28.676 10.6543C28.224 11.0017 27.6582 11.2083 27.0441 11.2083C25.564 11.2083 24.3642 10.0085 24.3642 8.52842C24.3642 7.91103 24.573 7.3424 24.9238 6.88928C24.2865 7.3792 23.8758 8.14921 23.8758 9.01516C23.8758 10.4952 25.0756 11.695 26.5557 11.695C27.4183 11.695 28.1858 11.2874 28.676 10.6543Z" fill="white"/>
<path d="M56.7826 20.1339H50.909L49.9674 22.8492H45.9545L51.6488 7.47717H56.0876L61.7819 22.8492H57.7242L56.7826 20.1339ZM55.7962 17.2434L53.8458 11.6158L51.9178 17.2434H55.7962Z" fill="#D63C0C"/>
<path d="M73.7602 20.1339H67.8866L66.945 22.8492H62.9321L68.6264 7.47717H73.0653L78.7595 22.8492H74.7018L73.7602 20.1339ZM72.7738 17.2434L70.8234 11.6158L68.8954 17.2434H72.7738Z" fill="#D63C0C"/>
<path d="M85.0211 19.7835H91.7915V22.8492H80.672V20.0025L87.3975 10.5428H80.672V7.47717H91.7915V10.3238L85.0211 19.7835Z" fill="#D63C0C"/>
<path d="M104.541 20.1339H98.6673L97.7258 22.8492H93.7129L99.4072 7.47717H103.846L109.54 22.8492H105.483L104.541 20.1339ZM103.555 17.2434L101.604 11.6158L99.6762 17.2434H103.555Z" fill="#D63C0C"/>
<path d="M117.618 7.47717C119.277 7.47717 120.726 7.79833 121.967 8.44066C123.207 9.08298 124.164 9.98808 124.837 11.1559C125.524 12.3092 125.868 13.6449 125.868 15.1632C125.868 16.6668 125.524 18.0025 124.837 19.1704C124.164 20.3383 123.2 21.2433 121.945 21.8857C120.704 22.528 119.262 22.8492 117.618 22.8492H111.722V7.47717H117.618ZM117.371 19.6083C118.821 19.6083 119.949 19.2215 120.756 18.4478C121.563 17.6741 121.967 16.5792 121.967 15.1632C121.967 13.7471 121.563 12.645 120.756 11.8567C119.949 11.0683 118.821 10.6742 117.371 10.6742H115.555V19.6083H117.371Z" fill="#D63C0C"/>
<path d="M141.954 7.47717L136.507 17.769V22.8492H132.673V17.769L127.226 7.47717H131.575L134.624 13.915L137.65 7.47717H141.954Z" fill="#D63C0C"/>
<path d="M59.9856 30.0342C59.9856 29.5598 60.0861 29.1378 60.2869 28.7683C60.4924 28.3942 60.7726 28.1023 61.1276 27.8924C61.4872 27.6826 61.8889 27.5776 62.3326 27.5776C62.893 27.5776 63.3648 27.7054 63.7477 27.9608C64.1307 28.2163 64.411 28.5744 64.5884 29.0352H64.2241C64.084 28.6702 63.8505 28.3828 63.5236 28.173C63.2013 27.9586 62.8043 27.8513 62.3326 27.8513C61.9543 27.8513 61.611 27.9403 61.3027 28.1182C60.9945 28.2916 60.7516 28.5448 60.5741 28.8778C60.3966 29.2062 60.3079 29.5917 60.3079 30.0342C60.3079 30.4722 60.3966 30.8554 60.5741 31.1839C60.7516 31.5078 60.9945 31.7587 61.3027 31.9366C61.611 32.1145 61.9543 32.2035 62.3326 32.2035C62.8043 32.2035 63.2013 32.0985 63.5236 31.8887C63.8505 31.6743 64.084 31.3846 64.2241 31.0196H64.5884C64.411 31.4804 64.1307 31.8385 63.7477 32.094C63.3648 32.3494 62.893 32.4772 62.3326 32.4772C61.8889 32.4772 61.4872 32.3745 61.1276 32.1692C60.7726 31.9594 60.4924 31.6697 60.2869 31.3002C60.0861 30.9261 59.9856 30.5041 59.9856 30.0342Z" fill="#D63C0C"/>
<path d="M71.8642 31.1975H69.5312L69.0618 32.4293H68.7186L70.5261 27.735H70.8763L72.6768 32.4293H72.3335L71.8642 31.1975ZM71.7661 30.9375L70.7012 28.1388L69.6293 30.9375H71.7661Z" fill="#D63C0C"/>
<path d="M81.5598 27.7282V32.4293H81.2446V28.3714L79.395 32.4293H79.1428L77.2863 28.3714V32.4293H76.971V27.7282H77.3073L79.2689 32.0255L81.2306 27.7282H81.5598Z" fill="#D63C0C"/>
<path d="M89.1983 28.9804C89.1983 29.4047 89.0629 29.7354 88.792 29.9727C88.5211 30.2053 88.1194 30.3216 87.587 30.3216H86.5361V32.4293H86.2209V27.6255H87.587C88.1288 27.6255 88.5328 27.7487 88.799 27.995C89.0652 28.2368 89.1983 28.5653 89.1983 28.9804ZM87.587 30.0479C88.451 30.0479 88.8831 29.6921 88.8831 28.9804C88.8831 28.6292 88.7803 28.3623 88.5748 28.1798C88.3693 27.9928 88.04 27.8992 87.587 27.8992H86.5361V30.0479H87.587Z" fill="#D63C0C"/>
<path d="M93.8634 27.8856V29.8905H95.8251V30.1506H93.8634V32.1692H96.0352V32.4293H93.5482V27.6255H96.0352V27.8856H93.8634Z" fill="#D63C0C"/>
<path d="M103.148 32.4293L101.887 30.3832H100.808V32.4293H100.492V27.6255H101.845C102.391 27.6255 102.8 27.751 103.071 28.0019C103.346 28.2528 103.484 28.5858 103.484 29.001C103.484 29.3705 103.376 29.6761 103.162 29.9179C102.951 30.1551 102.643 30.3011 102.237 30.3559L103.526 32.4293H103.148ZM100.808 30.1232H101.859C102.293 30.1232 102.617 30.0206 102.832 29.8153C103.047 29.61 103.155 29.3385 103.155 29.001C103.155 28.2665 102.718 27.8992 101.845 27.8992H100.808V30.1232Z" fill="#D63C0C"/>
<path d="M111.635 27.6255L109.758 32.4293H109.408L107.537 27.6255H107.88L109.583 32.0666L111.299 27.6255H111.635Z" fill="#D63C0C"/>
<path d="M118.688 31.1975H116.355L115.886 32.4293H115.542L117.35 27.735H117.7L119.501 32.4293H119.157L118.688 31.1975ZM118.59 30.9375L117.525 28.1388L116.453 30.9375H118.59Z" fill="#D63C0C"/>
<path d="M127.312 32.4293H126.996L124.11 28.1319V32.4293H123.795V27.6324H124.11L126.996 31.9161V27.6324H127.312V32.4293Z" fill="#D63C0C"/>
</svg>
